<?xml version="1.0" encoding="UTF-8" standalone="no"?>
<!DOCTYPE svg PUBLIC "-//W3C//DTD SVG 1.1//EN" "http://www.w3.org/Graphics/SVG/1.1/DTD/svg11.dtd">
<svg width="100%" height="100%" viewBox="0 0 217 233" version="1.1" xmlns="http://www.w3.org/2000/svg" xmlns:xlink="http://www.w3.org/1999/xlink" xml:space="preserve" style="fill-rule:evenodd;clip-rule:evenodd;stroke-linejoin:round;stroke-miterlimit:1.41421;">
    <path d="M211.807,139.088C208.624,155.454 183.314,173.365 154.244,176.836C139.084,178.645 124.162,180.308 108.246,179.578C82.218,178.385 61.681,173.365 61.681,173.365C61.681,175.899 61.837,178.311 62.149,180.568C65.533,206.254 87.619,207.793 108.542,208.51C129.657,209.233 148.458,203.304 148.458,203.304L149.327,222.394C149.327,222.394 134.557,230.325 108.246,231.784C93.737,232.581 75.722,231.419 54.739,225.865C9.232,213.82 1.406,165.311 0.208,116.091C-0.156,101.478 0.068,87.698 0.068,76.173C0.068,25.843 33.044,11.09 33.044,11.09C49.671,3.454 78.203,0.243 107.864,0L108.593,0C138.254,0.243 166.804,3.454 183.431,11.09C183.431,11.09 216.407,25.843 216.407,76.173C216.407,76.173 216.819,113.306 211.807,139.088" style="fill:rgb(48,136,212);fill-rule:nonzero;"/>
    <g transform="matrix(1.14278,0,0,1.09554,-17.0218,-4.79062)">
        <path d="M123.884,36.234C123.884,28.008 117.482,21.33 109.597,21.33C101.711,21.33 95.309,28.008 95.309,36.234L95.309,92.288C95.309,100.513 101.711,107.191 109.597,107.191C117.482,107.191 123.884,100.513 123.884,92.288L123.884,36.234Z" style="fill:white;"/>
    </g>
    <g transform="matrix(-0.57139,0.989677,-0.716737,-0.413809,233.533,24.1399)">
        <path d="M123.884,39.109C123.884,29.297 117.482,21.33 109.597,21.33C101.711,21.33 95.309,29.297 95.309,39.109L95.309,89.413C95.309,99.225 101.711,107.191 109.597,107.191C117.482,107.191 123.884,99.225 123.884,89.413L123.884,39.109Z" style="fill:white;"/>
    </g>
</svg>
